<svg width="38" height="38" viewBox="0 0 38 38" fill="none" xmlns="http://www.w3.org/2000/svg">
<path d="M23.7501 28.5V17.4166L20.5834 14.25V28.5H23.7501ZM17.4167 28.5V19H14.2501V28.5H17.4167ZM11.0834 31.6666H26.9167V20.5833L30.0834 23.75V34.8333H7.91675L7.91675 3.16665H12.6667V6.33332H11.0834L11.0834 31.6666ZM19.4751 1.74165C19.607 1.60971 19.7522 1.54373 19.9105 1.54373C20.0688 1.54373 20.214 1.60971 20.3459 1.74165L21.7709 3.16665L19.0001 5.93748L17.5751 4.51248C17.4431 4.38054 17.3772 4.2354 17.3772 4.07707C17.3772 3.91873 17.4431 3.77359 17.5751 3.64165L19.4751 1.74165ZM33.2501 17.4166H30.4792L19.9501 6.88748L22.7209 4.11665L33.2501 14.6458V17.4166Z" fill="url(#paint0_linear_32_13)"/>
<defs>
<linearGradient id="paint0_linear_32_13" x1="7.91675" y1="18.1885" x2="33.2501" y2="18.1885" gradientUnits="userSpaceOnUse">
<stop stop-color="#00A8FF"/>
<stop offset="1" stop-color="#FF00A8"/>
</linearGradient>
</defs>
</svg>
