<svg width="26" height="34" viewBox="0 0 26 34" fill="none" xmlns="http://www.w3.org/2000/svg">
<path d="M15.8333 26.9562L15.8333 15.8729L12.6667 12.7062L12.6667 26.9562H15.8333ZM9.5 26.9562L9.5 17.4562H6.33333L6.33333 26.9562H9.5ZM3.16667 30.1229H19V19.0396L22.1667 22.2062V33.2896H0L0 1.62289H4.75V4.78955H3.16667L3.16667 30.1229ZM11.5583 0.197888C11.6903 0.0659432 11.8354 -2.90014e-05 11.9937 -2.90014e-05C12.1521 -2.90014e-05 12.2972 0.0659432 12.4292 0.197888L13.8542 1.62289L11.0833 4.39372L9.65833 2.96872C9.52639 2.83678 9.46042 2.69164 9.46042 2.5333C9.46042 2.37497 9.52639 2.22983 9.65833 2.09789L11.5583 0.197888ZM25.3333 15.8729H22.5625L12.0333 5.34372L14.8042 2.57289L25.3333 13.1021V15.8729Z" fill="black"/>
</svg>
