<svg width="153" height="445" viewBox="0 0 153 445" fill="none" xmlns="http://www.w3.org/2000/svg">
<g filter="url(#filter0_i_59_2)">
<path fill-rule="evenodd" clip-rule="evenodd" d="M104.824 444.429C57.2952 444.74 20.7401 389.977 11.1903 342.18C2.06451 296.506 58.6094 258.172 58.2103 211.131C57.6577 145.989 -26.3931 85.6566 8.54031 29.802C40.5867 -21.4366 121.728 7.58686 177.52 20.3685C217.953 29.6315 239.764 71.1559 276.022 91.0806C309.466 109.458 378.172 91.8568 380.084 131.681C382.425 180.403 302.051 192.493 283.087 238.161C271.697 265.59 315.874 295.174 301.419 321.119C287.994 345.216 248.895 326.366 225.915 340.779C180.109 369.51 157.292 444.087 104.824 444.429Z" fill="white"/>
</g>
<defs>
<filter id="filter0_i_59_2" x="0.0444336" y="0.552765" width="380.09" height="447.878" filterUnits="userSpaceOnUse" color-interpolation-filters="sRGB">
<feFlood flood-opacity="0" result="BackgroundImageFix"/>
<feBlend mode="normal" in="SourceGraphic" in2="BackgroundImageFix" result="shape"/>
<feColorMatrix in="SourceAlpha" type="matrix" values="0 0 0 0 0 0 0 0 0 0 0 0 0 0 0 0 0 0 127 0" result="hardAlpha"/>
<feOffset dy="4"/>
<feGaussianBlur stdDeviation="2.5"/>
<feComposite in2="hardAlpha" operator="arithmetic" k2="-1" k3="1"/>
<feColorMatrix type="matrix" values="0 0 0 0 0 0 0 0 0 0 0 0 0 0 0 0 0 0 0.5 0"/>
<feBlend mode="normal" in2="shape" result="effect1_innerShadow_59_2"/>
</filter>
</defs>
</svg>
